<svg width="631" height="653" viewBox="0 0 631 653" fill="none" xmlns="http://www.w3.org/2000/svg">
<g filter="url(#filter0_ddd)">
<path fill-rule="evenodd" clip-rule="evenodd" d="M275.197 426.901C275.197 429.056 276.944 430.803 279.099 430.803C281.253 430.803 283 429.056 283 426.901C283 424.747 281.253 423 279.099 423C276.944 423 275.197 424.747 275.197 426.901Z" fill="#6FC2C5"/>
<path fill-rule="evenodd" clip-rule="evenodd" d="M275.197 495.564C275.197 497.718 276.944 499.465 279.099 499.465C281.253 499.465 283 497.718 283 495.564C283 493.409 281.253 491.662 279.099 491.662C276.944 491.662 275.197 493.409 275.197 495.564Z" fill="#6FC2C5"/>
<path fill-rule="evenodd" clip-rule="evenodd" d="M275.197 564.226C275.197 566.381 276.944 568.127 279.099 568.127C281.253 568.127 283 566.381 283 564.226C283 562.071 281.253 560.325 279.099 560.325C276.944 560.325 275.197 562.071 275.197 564.226Z" fill="#6FC2C5"/>
<path fill-rule="evenodd" clip-rule="evenodd" d="M275.197 461.232C275.197 463.387 276.944 465.134 279.099 465.134C281.253 465.134 283 463.387 283 461.232C283 459.078 281.253 457.331 279.099 457.331C276.944 457.331 275.197 459.078 275.197 461.232Z" fill="#6FC2C5"/>
<path fill-rule="evenodd" clip-rule="evenodd" d="M275.197 529.895C275.197 532.05 276.944 533.796 279.099 533.796C281.253 533.796 283 532.05 283 529.895C283 527.74 281.253 525.994 279.099 525.994C276.944 525.994 275.197 527.74 275.197 529.895Z" fill="#6FC2C5"/>
<path fill-rule="evenodd" clip-rule="evenodd" d="M275.197 598.557C275.197 600.712 276.944 602.459 279.099 602.459C281.253 602.459 283 600.712 283 598.557C283 596.403 281.253 594.656 279.099 594.656C276.944 594.656 275.197 596.403 275.197 598.557Z" fill="#6FC2C5"/>
<path fill-rule="evenodd" clip-rule="evenodd" d="M186.248 426.901C186.248 429.056 187.995 430.803 190.15 430.803C192.304 430.803 194.051 429.056 194.051 426.901C194.051 424.747 192.304 423 190.15 423C187.995 423 186.248 424.747 186.248 426.901Z" fill="#6FC2C5"/>
<path fill-rule="evenodd" clip-rule="evenodd" d="M186.248 495.564C186.248 497.718 187.995 499.465 190.15 499.465C192.304 499.465 194.051 497.718 194.051 495.564C194.051 493.409 192.304 491.662 190.15 491.662C187.995 491.662 186.248 493.409 186.248 495.564Z" fill="#6FC2C5"/>
<path fill-rule="evenodd" clip-rule="evenodd" d="M186.248 564.226C186.248 566.381 187.995 568.127 190.15 568.127C192.304 568.127 194.051 566.381 194.051 564.226C194.051 562.071 192.304 560.325 190.15 560.325C187.995 560.325 186.248 562.071 186.248 564.226Z" fill="#6FC2C5"/>
<path fill-rule="evenodd" clip-rule="evenodd" d="M186.248 461.232C186.248 463.387 187.995 465.134 190.15 465.134C192.304 465.134 194.051 463.387 194.051 461.232C194.051 459.078 192.304 457.331 190.15 457.331C187.995 457.331 186.248 459.078 186.248 461.232Z" fill="#6FC2C5"/>
<path fill-rule="evenodd" clip-rule="evenodd" d="M186.248 529.895C186.248 532.05 187.995 533.796 190.15 533.796C192.304 533.796 194.051 532.05 194.051 529.895C194.051 527.74 192.304 525.994 190.15 525.994C187.995 525.994 186.248 527.74 186.248 529.895Z" fill="#6FC2C5"/>
<path fill-rule="evenodd" clip-rule="evenodd" d="M186.248 598.557C186.248 600.712 187.995 602.459 190.15 602.459C192.304 602.459 194.051 600.712 194.051 598.557C194.051 596.403 192.304 594.656 190.15 594.656C187.995 594.656 186.248 596.403 186.248 598.557Z" fill="#6FC2C5"/>
<path fill-rule="evenodd" clip-rule="evenodd" d="M97.2994 426.901C97.2994 429.056 99.046 430.803 101.201 430.803C103.355 430.803 105.102 429.056 105.102 426.901C105.102 424.747 103.355 423 101.201 423C99.046 423 97.2994 424.747 97.2994 426.901Z" fill="#6FC2C5"/>
<path fill-rule="evenodd" clip-rule="evenodd" d="M97.2994 495.564C97.2994 497.718 99.046 499.465 101.201 499.465C103.355 499.465 105.102 497.718 105.102 495.564C105.102 493.409 103.355 491.662 101.201 491.662C99.046 491.662 97.2994 493.409 97.2994 495.564Z" fill="#6FC2C5"/>
<path fill-rule="evenodd" clip-rule="evenodd" d="M97.2994 564.226C97.2994 566.381 99.046 568.127 101.201 568.127C103.355 568.127 105.102 566.381 105.102 564.226C105.102 562.071 103.355 560.325 101.201 560.325C99.046 560.325 97.2994 562.071 97.2994 564.226Z" fill="#6FC2C5"/>
<path fill-rule="evenodd" clip-rule="evenodd" d="M97.2994 461.232C97.2994 463.387 99.046 465.134 101.201 465.134C103.355 465.134 105.102 463.387 105.102 461.232C105.102 459.078 103.355 457.331 101.201 457.331C99.046 457.331 97.2994 459.078 97.2994 461.232Z" fill="#6FC2C5"/>
<path fill-rule="evenodd" clip-rule="evenodd" d="M97.2994 529.895C97.2994 532.05 99.046 533.796 101.201 533.796C103.355 533.796 105.102 532.05 105.102 529.895C105.102 527.74 103.355 525.994 101.201 525.994C99.046 525.994 97.2994 527.74 97.2994 529.895Z" fill="#6FC2C5"/>
<path fill-rule="evenodd" clip-rule="evenodd" d="M97.2994 598.557C97.2994 600.712 99.046 602.459 101.201 602.459C103.355 602.459 105.102 600.712 105.102 598.557C105.102 596.403 103.355 594.656 101.201 594.656C99.046 594.656 97.2994 596.403 97.2994 598.557Z" fill="#6FC2C5"/>
<path fill-rule="evenodd" clip-rule="evenodd" d="M245.548 426.901C245.548 429.056 247.294 430.803 249.449 430.803C251.604 430.803 253.35 429.056 253.35 426.901C253.35 424.747 251.604 423 249.449 423C247.294 423 245.548 424.747 245.548 426.901Z" fill="#6FC2C5"/>
<path fill-rule="evenodd" clip-rule="evenodd" d="M245.548 495.564C245.548 497.718 247.294 499.465 249.449 499.465C251.604 499.465 253.35 497.718 253.35 495.564C253.35 493.409 251.604 491.662 249.449 491.662C247.294 491.662 245.548 493.409 245.548 495.564Z" fill="#6FC2C5"/>
<path fill-rule="evenodd" clip-rule="evenodd" d="M245.548 564.226C245.548 566.381 247.294 568.127 249.449 568.127C251.604 568.127 253.35 566.381 253.35 564.226C253.35 562.071 251.604 560.325 249.449 560.325C247.294 560.325 245.548 562.071 245.548 564.226Z" fill="#6FC2C5"/>
<path fill-rule="evenodd" clip-rule="evenodd" d="M245.548 461.232C245.548 463.387 247.294 465.134 249.449 465.134C251.604 465.134 253.35 463.387 253.35 461.232C253.35 459.078 251.604 457.331 249.449 457.331C247.294 457.331 245.548 459.078 245.548 461.232Z" fill="#6FC2C5"/>
<path fill-rule="evenodd" clip-rule="evenodd" d="M245.548 529.895C245.548 532.05 247.294 533.796 249.449 533.796C251.604 533.796 253.35 532.05 253.35 529.895C253.35 527.74 251.604 525.994 249.449 525.994C247.294 525.994 245.548 527.74 245.548 529.895Z" fill="#6FC2C5"/>
<path fill-rule="evenodd" clip-rule="evenodd" d="M245.548 598.557C245.548 600.712 247.294 602.459 249.449 602.459C251.604 602.459 253.35 600.712 253.35 598.557C253.35 596.403 251.604 594.656 249.449 594.656C247.294 594.656 245.548 596.403 245.548 598.557Z" fill="#6FC2C5"/>
<path fill-rule="evenodd" clip-rule="evenodd" d="M156.599 426.901C156.599 429.056 158.345 430.803 160.5 430.803C162.655 430.803 164.401 429.056 164.401 426.901C164.401 424.747 162.655 423 160.5 423C158.345 423 156.599 424.747 156.599 426.901Z" fill="#6FC2C5"/>
<path fill-rule="evenodd" clip-rule="evenodd" d="M156.599 495.564C156.599 497.718 158.345 499.465 160.5 499.465C162.655 499.465 164.401 497.718 164.401 495.564C164.401 493.409 162.655 491.662 160.5 491.662C158.345 491.662 156.599 493.409 156.599 495.564Z" fill="#6FC2C5"/>
<path fill-rule="evenodd" clip-rule="evenodd" d="M156.599 564.226C156.599 566.381 158.345 568.127 160.5 568.127C162.655 568.127 164.401 566.381 164.401 564.226C164.401 562.071 162.655 560.325 160.5 560.325C158.345 560.325 156.599 562.071 156.599 564.226Z" fill="#6FC2C5"/>
<path fill-rule="evenodd" clip-rule="evenodd" d="M156.599 461.232C156.599 463.387 158.345 465.134 160.5 465.134C162.655 465.134 164.401 463.387 164.401 461.232C164.401 459.078 162.655 457.331 160.5 457.331C158.345 457.331 156.599 459.078 156.599 461.232Z" fill="#6FC2C5"/>
<path fill-rule="evenodd" clip-rule="evenodd" d="M156.599 529.895C156.599 532.05 158.345 533.796 160.5 533.796C162.655 533.796 164.401 532.05 164.401 529.895C164.401 527.74 162.655 525.994 160.5 525.994C158.345 525.994 156.599 527.74 156.599 529.895Z" fill="#6FC2C5"/>
<path fill-rule="evenodd" clip-rule="evenodd" d="M156.599 598.557C156.599 600.712 158.345 602.459 160.5 602.459C162.655 602.459 164.401 600.712 164.401 598.557C164.401 596.403 162.655 594.656 160.5 594.656C158.345 594.656 156.599 596.403 156.599 598.557Z" fill="#6FC2C5"/>
<path fill-rule="evenodd" clip-rule="evenodd" d="M67.6497 426.901C67.6497 429.056 69.3963 430.803 71.5509 430.803C73.7055 430.803 75.4522 429.056 75.4522 426.901C75.4522 424.747 73.7055 423 71.5509 423C69.3963 423 67.6497 424.747 67.6497 426.901Z" fill="#6FC2C5"/>
<path fill-rule="evenodd" clip-rule="evenodd" d="M67.6497 495.564C67.6497 497.718 69.3963 499.465 71.5509 499.465C73.7056 499.465 75.4522 497.718 75.4522 495.564C75.4522 493.409 73.7056 491.662 71.5509 491.662C69.3963 491.662 67.6497 493.409 67.6497 495.564Z" fill="#6FC2C5"/>
<path fill-rule="evenodd" clip-rule="evenodd" d="M67.6497 564.226C67.6497 566.381 69.3963 568.127 71.5509 568.127C73.7056 568.127 75.4522 566.381 75.4522 564.226C75.4522 562.071 73.7056 560.325 71.5509 560.325C69.3963 560.325 67.6497 562.071 67.6497 564.226Z" fill="#6FC2C5"/>
<path fill-rule="evenodd" clip-rule="evenodd" d="M67.6497 461.232C67.6497 463.387 69.3963 465.134 71.5509 465.134C73.7056 465.134 75.4522 463.387 75.4522 461.232C75.4522 459.078 73.7056 457.331 71.5509 457.331C69.3963 457.331 67.6497 459.078 67.6497 461.232Z" fill="#6FC2C5"/>
<path fill-rule="evenodd" clip-rule="evenodd" d="M67.6497 529.895C67.6497 532.05 69.3963 533.796 71.5509 533.796C73.7056 533.796 75.4522 532.05 75.4522 529.895C75.4522 527.74 73.7056 525.994 71.5509 525.994C69.3963 525.994 67.6497 527.74 67.6497 529.895Z" fill="#6FC2C5"/>
<path fill-rule="evenodd" clip-rule="evenodd" d="M67.6497 598.557C67.6497 600.712 69.3963 602.459 71.5509 602.459C73.7056 602.459 75.4522 600.712 75.4522 598.557C75.4522 596.403 73.7056 594.656 71.5509 594.656C69.3963 594.656 67.6497 596.403 67.6497 598.557Z" fill="#6FC2C5"/>
<path fill-rule="evenodd" clip-rule="evenodd" d="M215.898 426.901C215.898 429.056 217.645 430.803 219.799 430.803C221.954 430.803 223.701 429.056 223.701 426.901C223.701 424.747 221.954 423 219.799 423C217.645 423 215.898 424.747 215.898 426.901Z" fill="#6FC2C5"/>
<path fill-rule="evenodd" clip-rule="evenodd" d="M215.898 495.564C215.898 497.718 217.645 499.465 219.799 499.465C221.954 499.465 223.701 497.718 223.701 495.564C223.701 493.409 221.954 491.662 219.799 491.662C217.645 491.662 215.898 493.409 215.898 495.564Z" fill="#6FC2C5"/>
<path fill-rule="evenodd" clip-rule="evenodd" d="M215.898 564.226C215.898 566.381 217.645 568.127 219.799 568.127C221.954 568.127 223.701 566.381 223.701 564.226C223.701 562.071 221.954 560.325 219.799 560.325C217.645 560.325 215.898 562.071 215.898 564.226Z" fill="#6FC2C5"/>
<path fill-rule="evenodd" clip-rule="evenodd" d="M215.898 461.232C215.898 463.387 217.645 465.134 219.799 465.134C221.954 465.134 223.701 463.387 223.701 461.232C223.701 459.078 221.954 457.331 219.799 457.331C217.645 457.331 215.898 459.078 215.898 461.232Z" fill="#6FC2C5"/>
<path fill-rule="evenodd" clip-rule="evenodd" d="M215.898 529.895C215.898 532.05 217.645 533.796 219.799 533.796C221.954 533.796 223.701 532.05 223.701 529.895C223.701 527.74 221.954 525.994 219.799 525.994C217.645 525.994 215.898 527.74 215.898 529.895Z" fill="#6FC2C5"/>
<path fill-rule="evenodd" clip-rule="evenodd" d="M215.898 598.557C215.898 600.712 217.645 602.459 219.799 602.459C221.954 602.459 223.701 600.712 223.701 598.557C223.701 596.403 221.954 594.656 219.799 594.656C217.645 594.656 215.898 596.403 215.898 598.557Z" fill="#6FC2C5"/>
<path fill-rule="evenodd" clip-rule="evenodd" d="M126.949 426.901C126.949 429.056 128.696 430.803 130.85 430.803C133.005 430.803 134.752 429.056 134.752 426.901C134.752 424.747 133.005 423 130.85 423C128.696 423 126.949 424.747 126.949 426.901Z" fill="#6FC2C5"/>
<path fill-rule="evenodd" clip-rule="evenodd" d="M126.949 495.564C126.949 497.718 128.696 499.465 130.85 499.465C133.005 499.465 134.752 497.718 134.752 495.564C134.752 493.409 133.005 491.662 130.85 491.662C128.696 491.662 126.949 493.409 126.949 495.564Z" fill="#6FC2C5"/>
<path fill-rule="evenodd" clip-rule="evenodd" d="M126.949 564.226C126.949 566.381 128.696 568.127 130.85 568.127C133.005 568.127 134.752 566.381 134.752 564.226C134.752 562.071 133.005 560.325 130.85 560.325C128.696 560.325 126.949 562.071 126.949 564.226Z" fill="#6FC2C5"/>
<path fill-rule="evenodd" clip-rule="evenodd" d="M126.949 461.232C126.949 463.387 128.696 465.134 130.85 465.134C133.005 465.134 134.752 463.387 134.752 461.232C134.752 459.078 133.005 457.331 130.85 457.331C128.696 457.331 126.949 459.078 126.949 461.232Z" fill="#6FC2C5"/>
<path fill-rule="evenodd" clip-rule="evenodd" d="M126.949 529.895C126.949 532.05 128.696 533.796 130.85 533.796C133.005 533.796 134.752 532.05 134.752 529.895C134.752 527.74 133.005 525.994 130.85 525.994C128.696 525.994 126.949 527.74 126.949 529.895Z" fill="#6FC2C5"/>
<path fill-rule="evenodd" clip-rule="evenodd" d="M126.949 598.557C126.949 600.712 128.696 602.459 130.85 602.459C133.005 602.459 134.752 600.712 134.752 598.557C134.752 596.403 133.005 594.656 130.85 594.656C128.696 594.656 126.949 596.403 126.949 598.557Z" fill="#6FC2C5"/>
<path fill-rule="evenodd" clip-rule="evenodd" d="M38 426.901C38 429.056 39.7467 430.803 41.9013 430.803C44.0559 430.803 45.8025 429.056 45.8025 426.901C45.8025 424.747 44.0559 423 41.9013 423C39.7467 423 38 424.747 38 426.901Z" fill="#6FC2C5"/>
<path fill-rule="evenodd" clip-rule="evenodd" d="M38 495.564C38 497.718 39.7467 499.465 41.9013 499.465C44.0559 499.465 45.8025 497.718 45.8025 495.564C45.8025 493.409 44.0559 491.662 41.9013 491.662C39.7467 491.662 38 493.409 38 495.564Z" fill="#6FC2C5"/>
<path fill-rule="evenodd" clip-rule="evenodd" d="M38 564.226C38 566.381 39.7467 568.127 41.9013 568.127C44.0559 568.127 45.8025 566.381 45.8025 564.226C45.8025 562.071 44.0559 560.325 41.9013 560.325C39.7467 560.325 38 562.071 38 564.226Z" fill="#6FC2C5"/>
<path fill-rule="evenodd" clip-rule="evenodd" d="M38 461.232C38 463.387 39.7467 465.134 41.9013 465.134C44.0559 465.134 45.8025 463.387 45.8025 461.232C45.8025 459.078 44.0559 457.331 41.9013 457.331C39.7467 457.331 38 459.078 38 461.232Z" fill="#6FC2C5"/>
<path fill-rule="evenodd" clip-rule="evenodd" d="M38 529.895C38 532.05 39.7467 533.796 41.9013 533.796C44.0559 533.796 45.8025 532.05 45.8025 529.895C45.8025 527.74 44.0559 525.994 41.9013 525.994C39.7467 525.994 38 527.74 38 529.895Z" fill="#6FC2C5"/>
<path fill-rule="evenodd" clip-rule="evenodd" d="M38 598.557C38 600.712 39.7467 602.459 41.9013 602.459C44.0559 602.459 45.8025 600.712 45.8025 598.557C45.8025 596.403 44.0559 594.656 41.9013 594.656C39.7467 594.656 38 596.403 38 598.557Z" fill="#6FC2C5"/>
<circle opacity="0.16" cx="288" cy="296" r="248" fill="#112C3D" stroke="#828282" stroke-width="2"/>
<path d="M323 623C472.117 623 593 502.117 593 353C593 203.883 472.117 83 323 83C173.883 83 53 203.883 53 353C53 502.117 173.883 623 323 623Z" fill="#112C3D"/>
</g>
<defs>
<filter id="filter0_ddd" x="0.0146866" y="0.235688" width="630.971" height="651.971" filterUnits="userSpaceOnUse" color-interpolation-filters="sRGB">
<feFlood flood-opacity="0" result="BackgroundImageFix"/>
<feColorMatrix in="SourceAlpha" type="matrix" values="0 0 0 0 0 0 0 0 0 0 0 0 0 0 0 0 0 0 127 0"/>
<feOffset dy="-2.09485"/>
<feGaussianBlur stdDeviation="2.85314"/>
<feColorMatrix type="matrix" values="0 0 0 0 0 0 0 0 0 0 0 0 0 0 0 0 0 0 0.01 0"/>
<feBlend mode="normal" in2="BackgroundImageFix" result="effect1_dropShadow"/>
<feColorMatrix in="SourceAlpha" type="matrix" values="0 0 0 0 0 0 0 0 0 0 0 0 0 0 0 0 0 0 127 0"/>
<feOffset dy="-4.60033"/>
<feGaussianBlur stdDeviation="7.88858"/>
<feColorMatrix type="matrix" values="0 0 0 0 0 0 0 0 0 0 0 0 0 0 0 0 0 0 0.01 0"/>
<feBlend mode="normal" in2="effect1_dropShadow" result="effect2_dropShadow"/>
<feColorMatrix in="SourceAlpha" type="matrix" values="0 0 0 0 0 0 0 0 0 0 0 0 0 0 0 0 0 0 127 0"/>
<feOffset dy="-8.779"/>
<feGaussianBlur stdDeviation="18.9927"/>
<feColorMatrix type="matrix" values="0 0 0 0 0 0 0 0 0 0 0 0 0 0 0 0 0 0 0.0120129 0"/>
<feBlend mode="normal" in2="effect2_dropShadow" result="effect3_dropShadow"/>
<feBlend mode="normal" in="SourceGraphic" in2="effect3_dropShadow" result="shape"/>
</filter>
</defs>
</svg>
